<?xml version="1.0" encoding="UTF-8" standalone="no"?>
<!DOCTYPE svg PUBLIC "-//W3C//DTD SVG 1.1//EN" "http://www.w3.org/Graphics/SVG/1.1/DTD/svg11.dtd">
<svg version="1.1" id="Layer_1" xmlns="http://www.w3.org/2000/svg" xmlns:xlink="http://www.w3.org/1999/xlink" x="0px" y="0px"
	 viewBox="0 0 181.7 108" style="enable-background:new 0 0 181.7 108;" xml:space="preserve">
<style type="text/css">
	.st0{fill:#14a874;}
</style>
<g>
	<g>
		<path class="st0" d="M3.7,108c-0.5-0.3-1.2-0.5-1.6-0.8c-1.2-1-2-2.1-2-3.8c0.1-16.5-0.2-33,0.1-49.5c0.2-8,4.2-16.2,12.8-19.3
			c3.2-1.2,6.5-1.4,9.8-1.4c8.9,0.1,16.5,7,18.6,15.5c1.6,6.4,1.4,12.9-0.8,19.1c-2.7,7.4-7.9,12.4-16,13.5c-2.6,0.4-5,0.2-7.5-0.4
			c-3.5-0.9-6-3.2-8-6.1c-0.1-0.2-0.2-0.3-0.4-0.5c0,0-0.1,0-0.2-0.1c0,3.4,0,6.9,0,10.3c0,7.3,0,14.5,0,21.8c0,0.6-0.1,1.2-0.1,1.8
			C6.7,108,5.2,108,3.7,108z M33.9,58.2c0.2-2.6-0.1-5.3-0.7-7.9c-1-3.8-2.9-7-6.7-8.5c-2.6-1-5.4-1.4-8.3-0.9
			c-3.7,0.6-6.5,2.4-8.1,5.8c-2.4,5.4-2.5,11-1.1,16.7c0.8,3.1,2.2,5.9,5,7.8c3.2,2.1,6.7,2.8,10.5,2.1c3.9-0.6,6.5-2.7,8-6.4
			C33.7,64.2,34,61.3,33.9,58.2z"/>
		<path class="st0" d="M149.8,108c-1.3-0.5-2.6-0.4-3.9-0.7c-5.7-1-11.1-3-16.2-5.7c-4.5-2.4-8.7-5.3-12.6-8.5
			c-3.9-3.2-7.5-6.7-10.8-10.4c-3.4-3.7-6.5-7.6-9.4-11.6c-5.5-7.5-10.4-15.3-15.2-23.2c-3-4.9-5.8-9.8-9-14.5
			c-3.2-4.8-6.4-9.6-10.1-14.1c-2.9-3.5-5.9-6.8-9.3-9.7c-4.8-4.1-10-7.4-16.3-8.8c-1-0.2-2-0.2-3.2-0.7c4.2-0.2,7.9,0.7,11.5,2
			c6.1,2.1,11.4,5.6,16.3,9.7c4.8,4,8.8,8.6,12.7,13.4C79,31,83.5,36.9,87.8,43c5.5,7.7,10.6,15.8,16,23.7c3.4,4.9,7,9.5,11,13.8
			c3.4,3.8,7,7.4,10.9,10.6c7.9,6.5,16.6,11.5,26.6,13.9c4.5,1,9,1.5,13.6,1.3c0.5,0,1-0.2,1.5-0.2c0.3,0,0.5,0,0.6,0.3
			c0,0.3-0.2,0.3-0.5,0.4c-1.4,0.2-2.7,0.4-4.1,0.7c-1,0.2-2.1,0-3,0.5C156.9,108,153.3,108,149.8,108z"/>
		<path class="st0" d="M181.7,78c-0.8,2.2-2.5,3.4-4.7,3.3c-2.1-0.1-4.3-0.3-6.4-1.1c-4.5-1.8-6.7-5.2-7.4-9.9
			c-0.2-1.6-0.2-3.2-0.2-4.8c0-10.7,0-21.4,0-32.1c0-1,0.2-1.2,1.2-1.3c4.1-0.3,5.7,2.6,6.4,5.4c0.9,3.7,0.8,7.4,0.7,11.1
			c0,5.7-0.2,11.4-0.2,17.1c0,1.9,0.1,4,1.5,5.6c1.4,1.6,3.3,2.1,5.3,2.2c1.2,0.1,2.5,0,3.7,0C181.7,75,181.7,76.5,181.7,78z"/>
		<path class="st0" d="M132.7,61.2c-2.4,0-4.8,0.1-7.2,0c-1,0-1.3,0.4-1.1,1.2c1.1,4.9,3.6,8.7,8.6,10.4c6,2,11.8,1.3,17.4-1.7
			c0.8-0.4,1.5-1.1,2.3-1.7c0.3-0.2,0.8-0.5,0.7,0.2c0,1.7,0.2,3.3-0.1,5c-0.5,2.1-1.8,3.5-3.6,4.5c-2.5,1.5-5.2,2.1-8.1,2.4
			c-1.8,0.2-3.5,0.2-5.2,0.2c-4.5,0-8.3-1.7-11.9-4.4c-4.8-3.6-7.2-8.5-8.2-14.3c-1-5.2-0.5-10.3,1.3-15.2c1.4-3.9,3.6-7.5,6.9-10.2
			c2.9-2.3,6.2-3.7,9.9-4.2c3-0.4,5.9-0.5,8.8,0.4c4.3,1.4,7.5,4,9.9,7.8c1.6,2.6,2.3,5.4,2.3,8.3c0,5.8-3.6,9.7-9.3,10.5
			C141.6,61.2,137.1,61.2,132.7,61.2z M136.9,40.8c-0.8,0-1.7-0.2-2.5,0c-6.2,1.4-10,6.5-10.3,12.7c0,0.8,0.2,1,1,1
			c2.5-0.1,4.9-0.3,7.4-0.2c2.8,0,5.6-0.1,8.4-0.3c1.5-0.1,3.1-0.3,4.5-1c0.8-0.4,1.7-1,1.8-1.8c0.3-2.5,0-5-1.7-7
			C143.2,41.6,140.3,40.6,136.9,40.8z"/>
		<path class="st0" d="M59.1,56.9c0,3.2-0.1,6.3,0,9.5c0.1,2.1,0.4,4.2,2.3,5.7c1.3,1,2.7,1.2,4.2,1.4c1,0.1,2,0.1,3,0
			c0.9-0.1,1.3,0.4,1.3,1.1c-0.1,1.5-0.1,3.1-0.8,4.5c-0.9,1.7-2.5,2.4-4.3,2.2c-1.9-0.1-3.8-0.3-5.7-0.9c-4.1-1.3-7.3-5-7.9-9.3
			c-0.5-4-0.4-8-0.4-12c0-5.2,0-10.5,0-15.7c0-1.8,0-1.7,1.7-1.8c4.1-0.3,6.8,3,6.6,6.6C59,51,59.1,54,59.1,56.9z"/>
		<path class="st0" d="M79,80.6c-1-0.2-2.2-0.2-3.2-1c-1.7-1.3-1.5-3.1-1.1-4.8c0.8-3.6,2.7-6.6,4.8-9.5c1.7-2.4,3.7-4.7,5.8-6.8
			c0.5-0.5,0.7-0.4,1,0c1.2,1.8,2.4,3.7,3.6,5.5c0.4,0.7-0.1,0.9-0.4,1.3c-3.2,3.6-5.9,7.5-7.4,12.1c-0.1,0.4-0.3,0.8-0.4,1.2
			C81.3,80.5,81.1,80.6,79,80.6z"/>
		<path class="st0" d="M110.7,38.5c0.1,3.2-1.8,5.6-3.5,8c-2.3,3.2-5.2,6-8,8.7c-0.5,0.5-0.8,0.5-1.2-0.1c-1-1.6-2.1-3.1-3.1-4.6
			c-0.3-0.5-0.4-0.9,0.1-1.4c2.2-2.4,4.4-4.8,6.2-7.5c1.4-2.1,2.6-4.3,3.2-6.8c0.2-0.7,0.4-0.9,1.2-0.9c1.8,0,3.4,0.4,4.5,2.1
			C110.7,36.7,110.8,37.6,110.7,38.5z"/>
		<path class="st0" d="M60.6,30c0.3,2.5-2.2,5.5-5.4,5.6c-2.7,0.1-5.5-2.4-5.6-5c-0.2-3.8,2.8-5.9,5.2-6.1
			C57.3,24.2,60.8,26.8,60.6,30z"/>
	</g>
</g>
</svg>
